<?xml version="1.0" standalone="no"?>
<!DOCTYPE svg PUBLIC "-//W3C//DTD SVG 20010904//EN"
 "http://www.w3.org/TR/2001/REC-SVG-20010904/DTD/svg10.dtd">
<svg version="1.0" xmlns="http://www.w3.org/2000/svg"
 width="260.000000pt" height="260.000000pt" viewBox="0 0 260.000000 260.000000"
 preserveAspectRatio="xMidYMid meet">
<metadata>
Created by potrace 1.14, written by Peter Selinger 2001-2017
</metadata>
<g transform="translate(0.000000,260.000000) scale(0.100000,-0.100000)"
fill="#000000" stroke="none">
<path d="M1384 1294 l-1 -1294 69 0 c47 0 68 4 69 13 0 6 2 190 4 407 4 374 6
464 20 690 15 246 16 264 35 420 6 47 13 108 16 135 11 101 54 294 84 379 l31
86 -81 93 c-96 109 -172 217 -214 302 l-31 63 -1 -1294z"/>
<path d="M1221 2544 c-19 -53 -118 -196 -215 -311 -47 -56 -86 -107 -86 -114
0 -6 6 -25 14 -42 14 -30 41 -119 51 -163 2 -11 10 -50 19 -89 8 -38 17 -89
20 -112 3 -24 8 -60 11 -80 3 -21 7 -60 10 -88 3 -27 7 -66 10 -85 9 -73 15
-158 30 -405 10 -154 18 -506 19 -760 l1 -290 70 0 69 0 -1 1283 c0 706 -3
1285 -5 1287 -2 3 -10 -11 -17 -31z"/>
<path d="M739 1962 c-25 -26 -89 -88 -142 -138 l-95 -91 22 -39 c114 -202 259
-655 290 -906 3 -27 9 -69 12 -95 4 -27 8 -192 8 -368 l2 -320 68 -3 68 -3 -6
468 c-3 257 -8 484 -10 503 -2 19 -7 78 -10 130 -4 52 -8 113 -11 135 -2 22
-6 72 -10 110 -10 115 -35 295 -50 370 -8 39 -16 84 -19 101 -8 42 -53 175
-63 185 -4 4 -29 -14 -54 -39z"/>
<path d="M1812 1953 c-19 -53 -38 -118 -48 -168 -8 -38 -33 -190 -39 -235 -3
-25 -8 -56 -10 -70 -2 -14 -6 -59 -10 -100 -4 -41 -9 -88 -11 -105 -2 -16 -6
-68 -10 -115 -3 -47 -8 -101 -10 -120 -2 -19 -7 -261 -10 -537 l-7 -503 67 0
66 0 1 273 c1 382 7 459 49 668 44 214 132 477 229 683 28 59 48 112 45 117
-3 6 -28 31 -55 56 -27 26 -83 78 -123 117 -112 108 -100 105 -124 39z"/>
<path d="M246 1536 c-81 -63 -148 -118 -149 -122 -1 -7 28 -50 69 -102 27 -34
120 -187 165 -272 91 -171 172 -404 198 -570 19 -122 23 -169 24 -319 l2 -151
71 0 72 0 -3 298 c-2 163 -6 308 -9 322 -2 14 -7 52 -11 85 -29 274 -107 574
-211 807 -70 159 -48 157 -218 24z"/>
<path d="M2213 1618 c-107 -185 -227 -594 -258 -883 -4 -33 -9 -71 -12 -85 -3
-14 -7 -166 -10 -338 l-5 -313 72 3 72 3 3 175 c2 96 6 186 9 200 2 14 8 48
12 75 4 28 8 55 9 60 63 285 193 571 376 823 l56 78 -116 89 c-63 50 -131 102
-152 118 l-37 27 -19 -32z"/>
</g>
</svg>
